<svg width="786" height="154" viewBox="0 0 786 154" fill="none" xmlns="http://www.w3.org/2000/svg">
<g clip-path="url(#clip0_1_587)">
<path d="M250.681 93.9323H250.718C263.641 93.9177 276.114 103.829 285.753 121.772C295.578 140.07 308.295 150.174 321.471 150.152C334.646 150.17 347.362 140.066 357.188 121.772C377.177 84.6467 407.342 84.6467 427.331 121.772C447.685 159.597 478.413 159.597 498.765 121.772C508.4 103.827 520.871 93.9154 533.792 93.9323H533.836M0 32.525H109.054C122.307 32.525 136.098 26.7494 150.045 13.8003C157.113 7.22098 164.767 3.82839 172.507 3.84528C186.079 3.82916 199.18 14.2248 209.312 33.0493C219.613 52.207 232.937 62.79 246.741 62.7784C260.543 62.7861 273.865 52.2039 284.162 33.0493C294.301 14.2202 307.363 3.85986 320.945 3.85986C334.51 3.84451 347.602 14.2348 357.728 33.0493C368.028 52.2024 381.348 62.7846 395.15 62.7784C408.955 62.7884 422.278 52.2062 432.578 33.0493C442.717 14.2202 455.783 3.85986 469.361 3.85986C482.926 3.84374 496.019 14.234 506.144 33.0493C516.443 52.2039 529.764 62.7861 543.566 62.7784C557.371 62.7907 570.695 52.2078 580.995 33.0493C591.124 14.2279 604.222 3.83223 617.792 3.84528C625.532 3.82839 633.187 7.22044 640.254 13.8003C654.215 26.7491 668.013 32.525 681.253 32.525H788.868H0Z" stroke="black" stroke-width="1.0018"/>
<path d="M370.961 18.9766H366.188V24H364.688V12.625H371.734V13.8594H366.188V17.75H370.961V18.9766ZM382.281 18.6797C382.281 19.7943 382.094 20.7682 381.719 21.6016C381.344 22.4297 380.812 23.0625 380.125 23.5C379.438 23.9375 378.635 24.1562 377.719 24.1562C376.823 24.1562 376.029 23.9375 375.336 23.5C374.643 23.0573 374.104 22.4297 373.719 21.6172C373.339 20.7995 373.143 19.8542 373.133 18.7812V17.9609C373.133 16.8672 373.323 15.901 373.703 15.0625C374.083 14.224 374.62 13.5833 375.312 13.1406C376.01 12.6927 376.807 12.4688 377.703 12.4688C378.615 12.4688 379.417 12.6901 380.109 13.1328C380.807 13.5703 381.344 14.2083 381.719 15.0469C382.094 15.8802 382.281 16.8516 382.281 17.9609V18.6797ZM380.789 17.9453C380.789 16.5964 380.518 15.5625 379.977 14.8438C379.435 14.1198 378.677 13.7578 377.703 13.7578C376.755 13.7578 376.008 14.1198 375.461 14.8438C374.919 15.5625 374.641 16.5625 374.625 17.8438V18.6797C374.625 19.987 374.898 21.0156 375.445 21.7656C375.997 22.5104 376.755 22.8828 377.719 22.8828C378.688 22.8828 379.438 22.5312 379.969 21.8281C380.5 21.1198 380.773 20.1068 380.789 18.7891V17.9453ZM388.703 19.3984H386.031V24H384.523V12.625H388.289C389.57 12.625 390.555 12.9167 391.242 13.5C391.935 14.0833 392.281 14.9323 392.281 16.0469C392.281 16.7552 392.089 17.3724 391.703 17.8984C391.323 18.4245 390.792 18.8177 390.109 19.0781L392.781 23.9062V24H391.172L388.703 19.3984ZM386.031 18.1719H388.336C389.081 18.1719 389.672 17.9792 390.109 17.5938C390.552 17.2083 390.773 16.6927 390.773 16.0469C390.773 15.3438 390.562 14.8047 390.141 14.4297C389.724 14.0547 389.12 13.8646 388.328 13.8594H386.031V18.1719ZM394.391 24V12.625H398.109C399.344 12.625 400.271 12.8802 400.891 13.3906C401.516 13.901 401.828 14.6562 401.828 15.6562C401.828 16.1875 401.677 16.6589 401.375 17.0703C401.073 17.4766 400.661 17.7917 400.141 18.0156C400.755 18.1875 401.24 18.5156 401.594 19C401.953 19.4792 402.133 20.0521 402.133 20.7188C402.133 21.7396 401.802 22.5417 401.141 23.125C400.479 23.7083 399.544 24 398.336 24H394.391ZM395.891 18.6797V22.7734H398.367C399.065 22.7734 399.615 22.5938 400.016 22.2344C400.422 21.8698 400.625 21.3698 400.625 20.7344C400.625 19.3646 399.88 18.6797 398.391 18.6797H395.891ZM395.891 17.4766H398.156C398.812 17.4766 399.336 17.3125 399.727 16.9844C400.122 16.6562 400.32 16.2109 400.32 15.6484C400.32 15.0234 400.138 14.5703 399.773 14.2891C399.409 14.0026 398.854 13.8594 398.109 13.8594H395.891V17.4766ZM410.789 18.7422H405.859V22.7734H411.586V24H404.359V12.625H411.508V13.8594H405.859V17.5156H410.789V18.7422ZM416.805 18.9297C415.518 18.5599 414.581 18.1068 413.992 17.5703C413.409 17.0286 413.117 16.362 413.117 15.5703C413.117 14.6745 413.474 13.9349 414.188 13.3516C414.906 12.763 415.839 12.4688 416.984 12.4688C417.766 12.4688 418.461 12.6198 419.07 12.9219C419.685 13.224 420.159 13.6406 420.492 14.1719C420.831 14.7031 421 15.2839 421 15.9141H419.492C419.492 15.2266 419.273 14.6875 418.836 14.2969C418.398 13.901 417.781 13.7031 416.984 13.7031C416.245 13.7031 415.667 13.8672 415.25 14.1953C414.839 14.5182 414.633 14.9688 414.633 15.5469C414.633 16.0104 414.828 16.4036 415.219 16.7266C415.615 17.0443 416.284 17.3359 417.227 17.6016C418.174 17.8672 418.914 18.1615 419.445 18.4844C419.982 18.8021 420.378 19.1745 420.633 19.6016C420.893 20.0286 421.023 20.5312 421.023 21.1094C421.023 22.0312 420.664 22.7708 419.945 23.3281C419.227 23.8802 418.266 24.1562 417.062 24.1562C416.281 24.1562 415.552 24.0078 414.875 23.7109C414.198 23.4089 413.674 22.9974 413.305 22.4766C412.94 21.9557 412.758 21.3646 412.758 20.7031H414.266C414.266 21.3906 414.518 21.9349 415.023 22.3359C415.534 22.7318 416.214 22.9297 417.062 22.9297C417.854 22.9297 418.461 22.7682 418.883 22.4453C419.305 22.1224 419.516 21.6823 419.516 21.125C419.516 20.5677 419.32 20.138 418.93 19.8359C418.539 19.5286 417.831 19.2266 416.805 18.9297Z" fill="#1E4844"/>
</g>
<defs>
<clipPath id="clip0_1_587">
<rect width="786" height="154" fill="white"/>
</clipPath>
</defs>
</svg>
